<?xml version="1.0" encoding="UTF-8" standalone="no"?>
<!DOCTYPE svg PUBLIC "-//W3C//DTD SVG 1.1//EN" "http://www.w3.org/Graphics/SVG/1.1/DTD/svg11.dtd">
<svg width="100%" height="100%" viewBox="0 0 1080 1080" version="1.1" xmlns="http://www.w3.org/2000/svg" xmlns:xlink="http://www.w3.org/1999/xlink" xml:space="preserve" xmlns:serif="http://www.serif.com/" style="fill-rule:evenodd;clip-rule:evenodd;stroke-linejoin:round;stroke-miterlimit:2;">
    <rect id="Artboard1" x="0" y="0" width="1080" height="1080" style="fill:none;"/>
    <g id="Artboard11" serif:id="Artboard1">
        <g id="Layer-1" serif:id="Layer 1" transform="matrix(0.54,0,0,0.54,4.61853e-14,4.61853e-14)">
            <rect x="0" y="0" width="2000" height="2000" style="fill:rgb(232,24,99);"/>
            <g transform="matrix(1,0,0,1,1154,311.3)">
                <path d="M0,1377L0,1164L64.6,1156.4L38,536.5L-199.7,1099.3L-359.4,644.8L-395.5,1190.5L-260.5,1177.2L-260.5,1441.5L-732.1,1441.5L-732.1,1228.5L-673.2,1220.9L-659.9,199.8L-732.2,199.8L-732.2,-13.2L-260.6,-64.5L-260.6,199.8L-331,199.8L-171.3,582L16.9,226.4L-45.9,226.4L-45.9,13.4L423.8,-37.9L423.8,226.4L357.5,226.4L348,1122L424.1,1112.5L424.1,1376.8L0,1376.8L0,1377Z" style="fill:white;fill-rule:nonzero;"/>
            </g>
        </g>
    </g>
</svg>
