<svg version="1.1" id="Layer_1" xmlns="http://www.w3.org/2000/svg" xmlns:xlink="http://www.w3.org/1999/xlink" x="0px" y="0px"
     viewBox="0 0 256 256" style="enable-background:new 0 0 256 256;" xml:space="preserve">
<style type="text/css">
	.st0{fill:#E81863;}
	.st1{fill:#FFFFFF;}
</style>
    <rect x="-2019.5" y="0.5" class="st0" width="2000" height="2000"/>
    <g>
	<g>
		<path class="st1" d="M-865.5,1688.8v-213l64.6-7.6l-26.6-619.9l-237.7,562.8l-159.7-454.5l-36.1,545.7l135-13.3v264.3h-471.6v-213
			l58.9-7.6l13.3-1021.1h-72.3v-213l471.6-51.3v264.3h-70.4l159.7,382.2l188.2-355.6h-62.8v-213l469.7-51.3v264.3H-508l-9.5,895.6
			l76.1-9.5v264.3H-865.5z"/>
	</g>
</g>
    <rect class="st0" width="256" height="256"/>
    <g>
	<g>
		<path class="st1" d="M147.7,216.2v-27.3l8.3-1l-3.4-79.4l-30.4,72.1l-20.5-58.2l-4.6,69.9l17.3-1.7v33.8H54v-27.3l7.5-1l1.7-130.8
			H54V38.1l60.4-6.6v33.8h-9l20.5,48.9l24.1-45.5h-8V41.6L202,35v33.8h-8.5l-1.2,114.7l9.7-1.2v33.8H147.7z"/>
	</g>
</g>
</svg>